<?xml version="1.0" encoding="utf-8"?>
<!-- Generator: Adobe Illustrator 26.3.1, SVG Export Plug-In . SVG Version: 6.00 Build 0)  -->
<svg version="1.1" id="surface" xmlns="http://www.w3.org/2000/svg" xmlns:xlink="http://www.w3.org/1999/xlink" x="0px" y="0px"
	 viewBox="0 0 256 256" style="enable-background:new 0 0 256 256;" xml:space="preserve">
<style type="text/css">
	.st0{fill:#33AAFF;}
	.st1{fill:#3388FF;}
	.st2{fill:#3366FF;}
</style>
<g>
	<path class="st0" d="M92.42,200H70.86c-7.83,0-14.68-5.26-16.7-12.83l-16.72-62.71c-1.46-5.49,2.67-10.87,8.35-10.87h21.56
		c7.83,0,14.68,5.26,16.7,12.83l16.72,62.71C102.23,194.62,98.1,200,92.42,200z"/>
	<path class="st1" d="M143.39,200h-28.74c-10.44,0-19.57-7.02-22.26-17.1l-22.3-83.61c-1.95-7.31,3.56-14.49,11.13-14.49h28.74
		c10.44,0,19.57,7.02,22.26,17.1l22.3,83.61C156.47,192.83,150.96,200,143.39,200z"/>
	<path class="st2" d="M204.44,200h-35.93c-13.05,0-24.47-8.77-27.83-21.38L112.82,74.11C110.38,64.97,117.27,56,126.73,56h35.93
		c13.05,0,24.47,8.77,27.83,21.38l27.87,104.51C220.8,191.03,213.91,200,204.44,200z"/>
</g>
</svg>
